<svg width="16" height="16" viewBox="0 0 16 16" fill="none" xmlns="http://www.w3.org/2000/svg">
<path fill-rule="evenodd" clip-rule="evenodd" d="M16 7.99578C16 3.57528 12.4163 0 7.99578 0C3.57528 0 0 3.58373 0 7.99578C0 12.4163 3.58374 16 7.99578 16C12.4078 16 16 12.4163 16 7.99578ZM15.2393 7.99578C15.2393 3.99789 12.0021 0.760698 8.00423 0.760698C4.00634 0.760698 0.769156 3.99789 0.769156 7.99578C0.769156 11.9937 4.00634 15.2309 8.00423 15.2309C12.0021 15.2309 15.2393 11.9937 15.2393 7.99578Z" fill="#333333"/>
<path fill-rule="evenodd" clip-rule="evenodd" d="M11.233 6.19545C11.2414 6.30533 11.233 6.40676 11.1991 6.51664C10.2187 7.68304 9.21288 8.841 8.19017 9.97359C8.06339 10.0159 7.9366 10.0159 7.80982 9.97359C6.88853 8.98468 5.9926 7.98733 5.11357 6.96461C4.94453 6.79557 4.8262 6.59271 4.76703 6.3645C4.86001 6.03486 5.07131 5.93344 5.40095 6.04332C6.25462 7.04068 7.1252 8.02114 7.99578 8.99314C8.8748 8.02114 9.73692 7.04068 10.599 6.04332C10.8442 5.9588 11.0555 6.01796 11.233 6.19545Z" fill="#333333"/>
</svg>
