<svg width="48" height="48" viewBox="0 0 48 48" fill="none" xmlns="http://www.w3.org/2000/svg">
<path fill-rule="evenodd" clip-rule="evenodd" d="M23.7731 0C10.63 0 0 10.6552 0 23.7982C0 36.9413 10.6552 47.5714 23.7731 47.5714C36.9162 47.5714 47.5714 36.9162 47.5714 23.7982C47.5714 10.6803 36.9162 0 23.7731 0ZM23.7731 2.26171C11.8866 2.26171 2.26171 11.8866 2.26171 23.7731C2.26171 35.6597 11.8866 45.2845 23.7731 45.2845C35.6597 45.2845 45.2845 35.6597 45.2845 23.7731C45.2845 11.8866 35.6597 2.26171 23.7731 2.26171Z" fill="white"/>
<path fill-rule="evenodd" clip-rule="evenodd" d="M18.4204 14.1734C18.7471 14.1483 19.0486 14.1734 19.3753 14.274C22.8433 17.189 26.2861 20.1795 29.6536 23.2203C29.7792 23.5972 29.7792 23.9742 29.6536 24.3511C26.7134 27.0903 23.748 29.7541 20.7073 32.3677C20.2046 32.8703 19.6015 33.2221 18.923 33.398C17.9429 33.1216 17.6414 32.4933 17.9681 31.5132C20.9334 28.9751 23.8485 26.3867 26.7385 23.7983C23.8485 21.1847 20.9334 18.6215 17.9681 16.0582C17.7168 15.3294 17.8927 14.7012 18.4204 14.1734Z" fill="white"/>
</svg>
