<svg width="33" height="17" viewBox="0 0 33 17" fill="none" xmlns="http://www.w3.org/2000/svg">
<path fill-rule="evenodd" clip-rule="evenodd" d="M24.3493 0.00326366C24.6759 -0.0144953 24.9681 0.0387772 25.2603 0.198607C27.77 2.79141 30.2797 5.40198 32.8066 7.99478C33.0645 8.34996 33.0645 8.70514 32.8066 9.06031C30.2453 11.7597 27.6497 14.388 25.0025 16.9808C24.2461 17.0873 23.9367 16.7499 24.0399 15.9863C26.1714 13.7842 28.2857 11.5998 30.4172 9.39772C20.4472 9.3622 10.4772 9.30894 0.507135 9.25566C-0.214833 8.70513 -0.163256 8.20787 0.644661 7.79941C10.5631 7.7639 20.4988 7.71063 30.4172 7.65736C28.2857 5.45525 26.1714 3.25315 24.0399 1.0688C23.9023 0.624826 24.0055 0.269648 24.3493 0.00326366Z" fill="white"/>
</svg>
