<svg width="25" height="22" viewBox="0 0 25 22" fill="none" xmlns="http://www.w3.org/2000/svg">
<path fill-rule="evenodd" clip-rule="evenodd" d="M11.3289 17.2918C10.0235 17.2918 8.95679 18.3504 8.95679 19.6459C8.95679 20.9413 10.0235 22 11.3289 22C12.6342 22 13.701 20.9413 13.701 19.6459C13.701 18.3504 12.6342 17.2918 11.3289 17.2918ZM11.3289 17.9186C10.3604 17.9186 9.58841 18.6987 9.58841 19.6459C9.58841 20.607 10.3744 21.3732 11.3289 21.3732C12.2974 21.3732 13.0694 20.5931 13.0694 19.6459C13.0694 18.6987 12.2833 17.9186 11.3289 17.9186Z" fill="white"/>
<path fill-rule="evenodd" clip-rule="evenodd" d="M0.198286 0.00502412C1.60189 -0.00890555 3.0055 0.00502433 4.4091 0.060743C4.84422 1.13333 5.23724 2.23377 5.5741 3.34815C11.9886 3.43172 18.4171 3.48744 24.8456 3.50137C24.9018 3.55709 24.9439 3.61281 25 3.6546C24.2561 7.03951 23.442 10.4244 22.5297 13.7954C17.9679 13.9068 13.4062 13.9347 8.84451 13.9068C8.98487 14.6173 9.16733 15.3137 9.37787 15.9963C13.7852 15.9684 18.1925 15.9963 22.5858 16.1077C22.67 16.3167 22.6419 16.4978 22.5297 16.6788C17.9679 16.7485 13.4062 16.7485 8.84451 16.6788C7.21633 11.4413 5.60218 6.20373 4.00207 0.952242C2.73883 0.868664 1.47558 0.812945 0.212336 0.799016C-0.068385 0.534352 -0.0683987 0.269688 0.198286 0.00502412ZM24.1017 4.28143C23.3858 7.20667 22.67 10.1319 21.9401 13.0571C17.4767 13.1964 12.9992 13.1964 8.52167 13.0571C7.62336 10.1737 6.7391 7.27631 5.89694 4.39287C11.9465 4.28143 18.01 4.25357 24.1017 4.28143Z" fill="white"/>
<path fill-rule="evenodd" clip-rule="evenodd" d="M24.1017 4.28143C18.01 4.25357 11.9465 4.28147 5.88291 4.39291C5.82676 4.39291 5.78466 4.35112 5.78466 4.28147C11.9044 4.14217 18.01 4.14214 24.1017 4.28143Z" fill="white"/>
<path fill-rule="evenodd" clip-rule="evenodd" d="M19.9751 17.2918C18.6697 17.2918 17.603 18.3504 17.603 19.6459C17.603 20.9413 18.6697 22 19.9751 22C21.2804 22 22.3472 20.9413 22.3472 19.6459C22.3472 18.3504 21.2804 17.2918 19.9751 17.2918ZM19.9751 17.9186C19.0066 17.9186 18.2346 18.6987 18.2346 19.6459C18.2346 20.607 19.0206 21.3732 19.9751 21.3732C20.9436 21.3732 21.7155 20.5931 21.7155 19.6459C21.7155 18.6987 20.9436 17.9186 19.9751 17.9186Z" fill="white"/>
</svg>
