<svg width="17" height="17" viewBox="0 0 17 17" fill="none" xmlns="http://www.w3.org/2000/svg">
<path fill-rule="evenodd" clip-rule="evenodd" d="M7.55561 3.99158C7.76944 3.95594 7.96546 4.00939 8.14365 4.15195C8.16147 5.70227 8.19712 7.25258 8.21494 8.8029C8.99901 9.08801 9.78307 9.35531 10.5671 9.6226C10.8701 9.85426 10.8701 10.0859 10.5671 10.3176C10.4068 10.371 10.2642 10.371 10.1038 10.3176C9.33757 10.0681 8.55351 9.8008 7.78726 9.55132C7.62688 9.51568 7.51997 9.40877 7.43087 9.28403C7.37741 7.57334 7.37741 5.88046 7.43087 4.16977C7.50215 4.11631 7.53779 4.06285 7.55561 3.99158Z" fill="#21B11D"/>
<path fill-rule="evenodd" clip-rule="evenodd" d="M8.5 0C3.81341 0 0 3.81342 0 8.5C0 13.1866 3.81341 17 8.5 17C13.1866 17 17 13.1866 17 8.5C17 3.81342 13.1866 0 8.5 0ZM8.5 0.908803C4.31237 0.908803 0.908806 4.31237 0.908806 8.5C0.908806 12.6876 4.31237 16.0912 8.5 16.0912C12.6876 16.0912 16.0912 12.6876 16.0912 8.5C16.0912 4.31237 12.6876 0.908803 8.5 0.908803Z" fill="#21B11D"/>
</svg>
