<svg width="12" height="12" viewBox="0 0 12 12" fill="none" xmlns="http://www.w3.org/2000/svg">
<path fill-rule="evenodd" clip-rule="evenodd" d="M3.1978 0C6.12816 0 9.06965 0 12 0C12 4.0036 12 7.9964 12 12C9.06965 12 6.12816 12 3.1978 12C3.1978 10.5755 3.1978 9.16187 3.1978 7.73741C3.45407 7.73741 3.71034 7.73741 3.9666 7.73741C3.9666 8.91367 3.9666 10.0791 3.9666 11.2554C6.38442 11.2554 8.80224 11.2554 11.2201 11.2554C11.2201 7.75899 11.2201 4.26259 11.2201 0.755396C8.80224 0.755396 6.38442 0.755396 3.9666 0.755396C3.9666 1.93165 3.9666 3.09712 3.9666 4.27338C3.71034 4.27338 3.45407 4.27338 3.1978 4.27338C3.1978 2.83813 3.1978 1.42446 3.1978 0Z" fill="black"/>
<path fill-rule="evenodd" clip-rule="evenodd" d="M6.29524 4.26254C6.94148 4.8021 7.55429 5.38484 8.13368 5.99995C7.55429 6.59347 6.95262 7.17621 6.33981 7.73736C6.1504 7.58628 5.97212 7.41362 5.80499 7.21937C6.0724 6.9388 6.33981 6.66901 6.6295 6.39923C4.42338 6.37765 2.20612 6.36685 0 6.37764C0 6.12944 0 5.88124 0 5.63304C2.20612 5.64383 4.42338 5.63304 6.6295 5.61146C6.35095 5.34167 6.0724 5.07189 5.80499 4.79132C5.97212 4.60786 6.12811 4.4352 6.29524 4.26254Z" fill="black"/>
</svg>
