<svg width="22" height="22" viewBox="0 0 22 22" fill="none" xmlns="http://www.w3.org/2000/svg">
<path d="M21.204 5.18177C20.9372 2.91423 18.7364 0.713368 16.4689 0.446599C12.7341 0.0464461 8.93262 0.0464461 5.19785 0.446599C2.93031 0.713368 0.729482 2.91423 0.462713 5.18177C0.0625592 8.91653 0.0625592 12.718 0.462713 16.4527C0.729482 18.7203 2.93031 20.9211 5.19785 21.1879C8.93262 21.588 12.7341 21.588 16.4689 21.1879C18.7364 20.9211 20.9372 18.7203 21.204 16.4527C21.6042 12.718 21.6042 8.98322 21.204 5.18177ZM19.47 16.2527C19.3366 17.6532 17.736 19.2538 16.2688 19.4539C14.4681 19.6539 12.6674 19.7207 10.8667 19.7207C9.066 19.7207 7.19865 19.6539 5.39796 19.4539C3.99742 19.3205 2.39677 17.7199 2.1967 16.2527C1.79654 12.6513 1.79654 8.98321 2.1967 5.38184C2.33008 3.9813 3.93073 2.3807 5.39796 2.18062C7.19865 1.98054 8.99933 1.91384 10.8 1.91384C12.6007 1.91384 14.4681 1.98054 16.2688 2.18062C17.6693 2.314 19.2699 3.91461 19.47 5.38184C19.8702 8.98321 19.8702 12.6513 19.47 16.2527Z" fill="white"/>
<path d="M16.1354 6.91576C16.9089 6.91576 17.5359 6.28873 17.5359 5.51524C17.5359 4.74174 16.9089 4.11468 16.1354 4.11468C15.3619 4.11468 14.7348 4.74174 14.7348 5.51524C14.7348 6.28873 15.3619 6.91576 16.1354 6.91576Z" fill="white"/>
<path d="M10.8668 6.11556C8.26583 6.11556 6.13169 8.24974 6.13169 10.8507C6.13169 13.4517 8.26583 15.5859 10.8668 15.5859C13.4678 15.5859 15.602 13.4517 15.602 10.8507C15.602 8.24974 13.4678 6.11556 10.8668 6.11556ZM10.8668 13.9853C9.13283 13.9853 7.73232 12.5847 7.73232 10.8507C7.73232 9.11674 9.13283 7.71619 10.8668 7.71619C12.6008 7.71619 14.0013 9.11674 14.0013 10.8507C14.0013 12.5847 12.6008 13.9853 10.8668 13.9853Z" fill="white"/>
</svg>
