<svg width="16" height="12" viewBox="0 0 16 12" fill="none" xmlns="http://www.w3.org/2000/svg">
<path fill-rule="evenodd" clip-rule="evenodd" d="M1.53513 0.00320341C5.81838 -0.00567818 10.1105 0.00320341 14.4027 0.0387297C15.2469 0.198598 15.7712 0.695967 15.9667 1.53972C16.0111 4.4884 16.0111 7.44597 15.9667 10.4035C15.8689 11.2384 15.4068 11.7624 14.5982 11.9667C10.1994 12.0111 5.80061 12.0111 1.40183 11.9667C0.682029 11.7802 0.228825 11.3272 0.0333241 10.5989C-0.011108 7.55255 -0.011108 4.51505 0.0333241 1.46866C0.273257 0.695967 0.770894 0.20748 1.53513 0.00320341ZM1.53513 0.536098C5.84504 0.527217 10.155 0.536098 14.4649 0.571625C15.0158 0.740375 15.3535 1.10452 15.469 1.67294C13.2385 3.55584 11.0169 5.45649 8.80422 7.36603C8.3599 7.68577 7.88892 7.73018 7.40905 7.49926C5.12524 5.58084 2.85032 3.66242 0.575394 1.73511C0.637599 1.13116 0.957509 0.731493 1.53513 0.536098ZM15.3979 2.40123C15.4779 5.07459 15.4868 7.76571 15.4335 10.4657C15.3979 10.5812 15.3535 10.6966 15.3002 10.7943C14.065 9.58643 12.8564 8.35189 11.6656 7.09959C11.2658 6.90419 11.1147 7.02853 11.2302 7.46373C12.4832 8.69827 13.7184 9.95057 14.927 11.2295C14.8114 11.3272 14.6781 11.3983 14.5271 11.4249C10.1461 11.4693 5.77395 11.4693 1.40183 11.4249C1.31297 11.3805 1.2241 11.3361 1.13524 11.2917C1.07303 11.2473 1.06415 11.1851 1.09969 11.1229C2.34379 9.89729 3.57012 8.65386 4.7609 7.39268C4.81421 7.09071 4.69869 6.97524 4.39655 7.02853C3.14357 8.26307 1.90836 9.51538 0.699806 10.7943C0.682033 10.7766 0.655369 10.7499 0.62871 10.7233C0.548732 9.31998 0.522075 7.90781 0.530961 6.49564C0.548734 5.15452 0.575392 3.8134 0.602052 2.4634C2.72591 4.23972 4.83199 6.02492 6.92918 7.82788C7.67564 8.24531 8.41322 8.22755 9.13302 7.76571C11.2391 5.98939 13.3274 4.20419 15.3979 2.40123Z" fill="#21B11D"/>
</svg>
