<svg width="13" height="18" viewBox="0 0 13 18" fill="none" xmlns="http://www.w3.org/2000/svg">
<path fill-rule="evenodd" clip-rule="evenodd" d="M5.8907 0.000333154C9.52367 -0.0278006 11.8598 1.72587 12.8899 5.28011C13.1842 7.03378 12.8899 8.67492 11.9886 10.2035C10.3606 12.7824 8.6959 15.3239 6.98519 17.8372C6.51612 18.1185 6.11144 18.0341 5.78033 17.5933C4.19838 15.1269 2.60723 12.6699 1.01608 10.2035C-0.694634 6.94938 -0.243964 4.0516 2.3589 1.51956C3.4074 0.675545 4.58467 0.169136 5.8907 0.000333154ZM5.81712 0.7787C9.22935 0.703677 11.354 2.34481 12.2001 5.70211C12.3657 7.09942 12.1081 8.41233 11.4459 9.64084C9.83638 12.201 8.19925 14.7331 6.51612 17.237C4.95257 14.8831 3.3982 12.5105 1.86224 10.1285C0.353864 7.61521 0.445838 5.17695 2.13816 2.81371C3.13148 1.68836 4.35473 1.01315 5.81712 0.7787Z" fill="#21B11D"/>
<path fill-rule="evenodd" clip-rule="evenodd" d="M5.81711 3.17007C7.86813 2.98251 9.21096 3.87342 9.85477 5.84278C10.1583 7.89655 9.35811 9.28448 7.47265 10.0253C5.54119 10.4286 4.15239 9.744 3.29703 7.95282C2.7176 5.56144 3.55456 3.9672 5.81711 3.17007ZM5.8907 3.93906C7.47265 3.74213 8.54874 4.39858 9.10059 5.90843C9.4041 7.48392 8.84306 8.59051 7.40827 9.24697C6.18502 9.60333 5.1641 9.28448 4.33634 8.2998C3.50857 6.88373 3.68332 5.59895 4.85139 4.46422C5.19169 4.24853 5.532 4.07973 5.8907 3.93906Z" fill="#21B11D"/>
</svg>
