<svg width="20" height="20" viewBox="0 0 20 20" fill="none" xmlns="http://www.w3.org/2000/svg">
<path fill-rule="evenodd" clip-rule="evenodd" d="M3.62786 0.00470722C4.16333 -0.0265342 4.6568 0.0984324 5.12928 0.358777C6.18973 1.41057 7.25017 2.46237 8.32112 3.52457C8.82509 4.36809 8.77259 5.16995 8.16362 5.95099C7.59665 6.51333 7.04018 7.06526 6.47321 7.62761C7.88014 10.1686 9.86454 12.1368 12.4159 13.5218C13.0669 12.8553 13.7284 12.2201 14.4213 11.6057C15.2298 11.21 15.9857 11.2933 16.6997 11.8452C17.6342 12.772 18.5686 13.6989 19.4926 14.6153C20.1435 15.4796 20.1645 16.3648 19.5766 17.2708C18.8521 17.9893 18.1276 18.7079 17.4137 19.416C16.4267 19.9784 15.3768 20.1346 14.2638 19.8846C11.9959 19.3223 9.92754 18.3538 8.03764 17C4.61481 14.5215 2.10543 11.3245 0.520005 7.42975C0.0685278 6.27382 -0.0889643 5.07623 0.0475289 3.83699C0.152524 3.38919 0.341513 2.97264 0.604 2.58733C1.32846 1.86878 2.04243 1.16064 2.7669 0.442088C3.03988 0.25464 3.32337 0.108845 3.62786 0.00470722ZM3.70135 1.01485C4.01633 0.983605 4.29982 1.04609 4.5623 1.21271C5.63325 2.22285 6.6412 3.27464 7.59666 4.3785C7.68065 4.73257 7.60715 5.04499 7.36567 5.31574C6.7567 5.91974 6.15823 6.51333 5.54926 7.10692C5.43376 7.32561 5.41276 7.56512 5.47576 7.80464C6.7462 10.3144 8.5626 12.3242 10.946 13.8551C11.408 14.1675 11.9014 14.3862 12.4474 14.5215C12.6154 14.5215 12.7729 14.4799 12.9199 14.407C13.5289 13.803 14.1273 13.2094 14.7258 12.6158C15.1038 12.3034 15.4923 12.2722 15.9017 12.5325C16.8887 13.5114 17.8756 14.4903 18.8521 15.4588C19.0621 15.7608 19.0936 16.0732 18.9361 16.396C18.3166 17.0625 17.6972 17.7186 17.0882 18.3851C16.3637 18.937 15.5553 19.114 14.6418 18.9266C12.9199 18.5517 11.324 17.906 9.83304 16.9792C5.70675 14.4278 2.82989 10.8663 1.21297 6.31547C0.971487 5.51361 0.918989 4.71174 1.05548 3.89947C1.13948 3.65995 1.24447 3.42043 1.37047 3.19133C2.12643 2.43112 2.90339 1.70216 3.70135 1.01485Z" fill="#21B11D"/>
</svg>
