<svg width="12" height="12" viewBox="0 0 12 12" fill="none" xmlns="http://www.w3.org/2000/svg">
<path fill-rule="evenodd" clip-rule="evenodd" d="M10.3152 0.00463039C10.5633 -0.0169781 10.8006 0.0370431 11.0163 0.166694C11.286 0.4368 11.5664 0.71771 11.8361 0.987816C12.0411 1.29033 12.0519 1.60366 11.8793 1.92779C10.0455 3.76451 8.21168 5.60122 6.37789 7.43794C5.84932 7.55679 5.32076 7.66483 4.78141 7.76207C4.29599 7.84851 4.1234 7.65403 4.24206 7.17864C4.33914 6.66004 4.44701 6.14144 4.56567 5.63364C6.39946 3.79692 8.23326 1.9602 10.0671 0.123478C10.1641 0.0910649 10.2396 0.0478473 10.3152 0.00463039ZM9.46298 1.69009C9.75423 1.89537 10.0239 2.13306 10.2828 2.39237C10.3152 2.43558 10.3152 2.4896 10.2828 2.53282C8.86969 3.94817 7.45659 5.36353 6.04349 6.77889C5.6983 6.85452 5.35312 6.93014 5.00793 6.99497C5.04029 6.63843 5.1158 6.3035 5.22367 5.95776C6.64756 4.54241 8.06066 3.12705 9.46298 1.69009ZM10.4554 0.706905C10.5093 0.696101 10.5525 0.706907 10.5956 0.728515C10.8437 0.966208 11.081 1.2147 11.2968 1.47401C11.1673 1.64687 11.0163 1.81974 10.8545 1.971C10.5848 1.7009 10.3044 1.41999 10.0347 1.14988C10.1749 1.00942 10.3151 0.858165 10.4554 0.706905Z" fill="black"/>
<path fill-rule="evenodd" clip-rule="evenodd" d="M1.03825 1.92776C2.88283 1.91695 4.72742 1.92775 6.56121 1.94936C6.87403 2.16545 6.87403 2.39234 6.56121 2.60842C4.74899 2.61922 2.93677 2.64083 1.12455 2.65164C0.930379 2.72727 0.800937 2.85692 0.725428 3.05139C0.693066 5.66602 0.693066 8.26984 0.725428 10.8845C0.800937 11.0789 0.930379 11.2086 1.12455 11.2842C3.73501 11.3166 6.33468 11.3166 8.94514 11.2842C9.13931 11.2086 9.26875 11.0789 9.34426 10.8845C9.35505 9.06935 9.37662 7.25424 9.38741 5.43913C9.60315 5.12581 9.82968 5.12581 10.0454 5.43913C10.0778 7.28665 10.0778 9.13418 10.0454 10.9709C9.8944 11.4895 9.56 11.8352 9.04223 11.9757C6.36704 12.0081 3.70265 12.0081 1.02746 11.9757C0.509686 11.8244 0.164502 11.4895 0.0242708 10.9709C-0.00809027 8.29144 -0.00809027 5.6228 0.0242708 2.94335C0.186076 2.43555 0.520473 2.08982 1.03825 1.92776Z" fill="black"/>
</svg>
