<svg width="23" height="23" viewBox="0 0 23 23" fill="none" xmlns="http://www.w3.org/2000/svg">
<path fill-rule="evenodd" clip-rule="evenodd" d="M9.58454 0C4.29294 0 0 4.2617 0 9.51479C0 14.7679 4.29294 19.0296 9.58454 19.0296C11.932 19.0296 14.072 18.1927 15.7451 16.815L21.8278 22.802C22.1002 23.0724 22.5412 23.0595 22.8006 22.802C23.0729 22.5316 23.06 22.0939 22.8006 21.8364L16.7438 15.8623C18.2612 14.1756 19.182 11.9482 19.182 9.51479C19.182 4.2617 14.8891 0 9.58454 0ZM9.58454 1.62228C5.18784 1.62228 1.63417 5.16296 1.63417 9.51479C1.63417 13.8666 5.20081 17.4073 9.58454 17.4073C13.9683 17.4073 17.5349 13.8666 17.5349 9.51479C17.5349 5.16296 13.9812 1.62228 9.58454 1.62228Z" fill="#21B11D"/>
</svg>
