<svg width="18" height="15" viewBox="0 0 18 15" fill="none" xmlns="http://www.w3.org/2000/svg">
<path fill-rule="evenodd" clip-rule="evenodd" d="M17.1575 0.00298662C17.3681 -0.012601 17.5949 0.034162 17.7894 0.1121C17.919 0.221214 18 0.377091 18 0.548555C17.0764 5.06898 16.1529 9.57382 15.2131 14.0787C14.9053 15.0295 14.3058 15.2477 13.4146 14.7178C11.3083 13.1278 9.2019 11.569 7.07934 10.0103C9.57456 7.78124 12.1184 5.56779 14.6784 3.41669C14.8729 3.22964 15.0835 3.027 15.2779 2.83994C15.3265 2.73083 15.3103 2.62172 15.2455 2.52819C15.0187 2.52819 14.8081 2.60613 14.6136 2.73083C11.3245 4.80399 8.0191 6.83039 4.69753 8.8412C4.60032 8.88796 4.5031 8.88796 4.42209 8.8412C3.01245 8.42033 1.61901 7.9527 0.274181 7.42272C-0.0336713 7.17332 -0.0822796 6.89274 0.128356 6.58098C0.322789 6.42511 0.533425 6.30041 0.760264 6.20688C6.2368 4.13372 11.6971 2.07615 17.1575 0.00298662Z" fill="#24B7EB"/>
</svg>
