<svg width="28" height="16" viewBox="0 0 28 16" fill="none" xmlns="http://www.w3.org/2000/svg">
<path fill-rule="evenodd" clip-rule="evenodd" d="M27.101 14.9241C26.7953 15.2684 25.9808 15.3447 25.9808 15.3447H21.6398C21.6398 15.3447 21.0329 15.4865 19.9594 14.3633C19.2219 13.5916 18.4639 12.4533 17.859 11.9801C17.4982 11.6979 17.1588 11.8399 17.1588 11.8399C17.1588 11.8399 16.5254 11.8703 16.4586 12.5409C16.3413 13.7187 16.1786 14.3633 16.1786 14.3633C16.1786 14.3633 16.1013 14.8613 15.8985 15.0643C15.6818 15.2813 15.3384 15.3447 15.3384 15.3447C15.3384 15.3447 9.34725 16.6967 4.69595 9.17623C1.33932 3.74872 0.91511 2.16665 0.91511 2.16665C0.91511 2.16665 0.630405 1.78321 0.91511 1.32548C1.21569 0.842285 1.61529 0.904924 1.61529 0.904924H5.53616C5.53616 0.904924 5.96968 0.95167 6.23634 1.1853C6.52859 1.44129 6.65647 1.88628 6.65647 1.88628C6.65647 1.88628 7.51596 3.96697 8.4769 5.53128C9.80476 7.69278 10.4374 7.49399 10.4374 7.49399C10.4374 7.49399 11.584 7.17459 10.8574 2.30684C10.7569 1.63345 9.45713 1.46567 9.45713 1.46567C9.45713 1.46567 9.44508 0.884424 9.73718 0.624499C10.0722 0.326267 10.4374 0.344127 10.4374 0.344127C10.4374 0.344127 11.0188 0.242455 13.0979 0.20394C14.149 0.184528 14.9183 0.20394 14.9183 0.20394C14.9183 0.20394 15.4299 0.186909 16.0386 0.624551C16.3331 0.83628 16.3186 1.32553 16.3186 1.32553C16.3186 1.32553 16.1952 4.83858 16.3186 6.65287C16.3718 7.43322 16.7388 7.49404 16.7388 7.49404C16.7388 7.49404 17.1329 7.79957 18.6992 5.53133C19.6904 4.09597 20.5196 2.02652 20.5196 2.02652C20.5196 2.02652 20.7249 1.43632 20.9397 1.18535C21.1447 0.945924 21.4998 0.904976 21.4998 0.904976H26.541C26.541 0.904976 26.8518 0.893535 26.961 1.18535C27.0614 1.4533 26.961 2.02652 26.961 2.02652C26.961 2.02652 26.906 2.66139 26.4009 3.42848C25.2084 5.23978 22.9001 8.19497 22.9001 8.19497C22.9001 8.19497 22.7269 8.59628 22.7601 8.89596C22.7967 9.22577 23.0402 9.4567 23.0402 9.4567C23.0402 9.4567 24.78 11.0328 25.9808 12.4008C26.6296 13.1399 27.1011 14.0831 27.1011 14.0831C27.1011 14.0831 27.3494 14.6444 27.101 14.9241Z" fill="white"/>
</svg>
