<svg width="18" height="18" viewBox="0 0 18 18" fill="none" xmlns="http://www.w3.org/2000/svg">
<path fill-rule="evenodd" clip-rule="evenodd" d="M8.29222 0.00492397C12.0383 -0.0983367 14.8924 1.42241 16.8452 4.57655C18.3849 7.53356 18.3849 10.4906 16.8452 13.4476C14.883 16.6111 12.0383 18.1319 8.29222 17.991C5.15643 17.6437 2.77173 16.1324 1.14751 13.4476C-0.64571 9.85223 -0.335888 6.44463 2.06759 3.23416C3.71059 1.3567 5.79485 0.277157 8.29222 0.00492397ZM5.61647 4.30432C5.76669 4.29493 5.90752 4.33248 6.03896 4.40758C6.6586 5.00837 7.25947 5.62793 7.83217 6.27566C7.86973 6.39769 7.84156 6.51973 7.75706 6.62299C7.38152 6.99848 7.00598 7.37398 6.63044 7.74947C6.48961 8.04987 6.48961 8.35965 6.63044 8.66004C7.41908 9.75836 8.36732 10.6783 9.48456 11.4387C9.77561 11.5795 10.0573 11.5513 10.3295 11.3636C10.6769 11.0163 11.0337 10.6595 11.3811 10.3028C11.5688 10.162 11.7566 10.162 11.9444 10.3028C12.5171 10.8755 13.0898 11.4481 13.6719 12.0301C13.7188 12.1897 13.7188 12.3587 13.6719 12.5276C12.7142 13.7198 11.5219 14.0108 10.1136 13.41C7.28764 12.1897 5.35359 10.1339 4.30207 7.25194C4.15185 6.64177 4.21757 6.05036 4.50862 5.48712C4.82783 5.04592 5.1846 4.64226 5.61647 4.30432Z" fill="#21B11D"/>
</svg>
