<svg width="15" height="15" viewBox="0 0 15 15" fill="none" xmlns="http://www.w3.org/2000/svg">
<path fill-rule="evenodd" clip-rule="evenodd" d="M7.07573 0.00180663C10.8173 -0.0632348 13.3684 1.62784 14.7159 5.08805C15.4746 8.11898 14.7159 10.6816 12.4134 12.802C10.2155 14.5061 7.78218 14.8963 5.13953 13.9857C4.6424 13.7776 4.17143 13.5434 3.71355 13.2833C2.79778 13.5695 1.89509 13.8426 0.992406 14.1288C1.25405 13.2442 1.54187 12.3727 1.84276 11.5011C0.102801 8.80842 0.0373893 6.06367 1.64653 3.2799C2.98093 1.39369 4.78631 0.314006 7.07573 0.00180663Z" fill="#4CB050"/>
<path fill-rule="evenodd" clip-rule="evenodd" d="M4.64235 3.33201C4.93016 3.319 5.20489 3.33201 5.49271 3.35802C5.54504 3.37103 5.5712 3.41006 5.61045 3.44908C5.91135 4.06047 6.18607 4.67186 6.43464 5.30927C6.47389 5.49138 6.43464 5.66049 6.3169 5.81659C6.08142 6.05074 5.88518 6.2979 5.71511 6.58408C6.35615 7.81987 7.32425 8.70443 8.60632 9.23777C8.80256 9.28981 8.9988 9.26379 9.16887 9.18574C9.3651 8.91256 9.57442 8.63939 9.79682 8.36622C9.87532 8.28817 9.96689 8.24914 10.0846 8.24914C10.7649 8.50931 11.4321 8.8085 12.0732 9.14671C12.2432 10.0833 11.8769 10.7337 10.9873 11.098C10.3594 11.3581 9.74449 11.3581 9.11654 11.098C7.75596 10.7207 6.59163 10.0313 5.62353 9.04265C5.08715 8.45727 4.6031 7.83288 4.14522 7.18246C3.56959 6.32391 3.4126 5.40033 3.68733 4.4117C3.88357 3.93039 4.19755 3.57917 4.64235 3.33201Z" fill="#FBFCFB"/>
</svg>
