<svg width="25" height="18" viewBox="0 0 25 18" fill="none" xmlns="http://www.w3.org/2000/svg">
<path d="M0.507744 6.949C0.507744 6.4475 0.570182 5.88331 0.63265 5.06837C0.695118 4.31612 0.820054 3.62655 0.94499 3.06236C1.06993 2.3728 1.38227 1.8086 1.88201 1.36979C2.38176 0.930977 2.94401 0.617547 3.56869 0.554859C5.56767 0.304109 8.56612 0.178711 12.689 0.178711C16.7494 0.178711 19.8104 0.304109 21.8093 0.554859C22.434 0.617547 23.0587 0.868289 23.4959 1.36979C23.9957 1.8086 24.308 2.3728 24.433 3.06236C24.5579 3.62655 24.6828 4.31612 24.7453 5.06837C24.8078 5.82062 24.8703 6.4475 24.8703 6.949C24.8703 7.4505 24.8703 8.14005 24.8703 9.01768C24.8703 9.8953 24.8703 10.5849 24.8703 11.0864C24.8703 11.5879 24.8078 12.2147 24.7453 12.967C24.6828 13.7192 24.5579 14.4088 24.433 14.973C24.308 15.6626 23.9957 16.2268 23.4959 16.6656C22.9962 17.1044 22.434 17.4178 21.8093 17.4805C19.8104 17.7312 16.8119 17.7939 12.689 17.7939C8.62859 17.7939 5.56767 17.6686 3.56869 17.4805C2.94401 17.4178 2.31929 17.1044 1.88201 16.6656C1.38227 16.2268 1.06993 15.6626 0.94499 14.973C0.820054 14.4088 0.695118 13.7192 0.63265 12.967C0.570182 12.2147 0.507744 11.5879 0.507744 11.0864C0.507744 10.5849 0.507744 9.8953 0.507744 9.01768C0.507744 8.14005 0.445276 7.4505 0.507744 6.949ZM10.1903 13.3431C10.3152 13.4058 10.4402 13.4685 10.5026 13.4685C10.69 13.4685 10.815 13.4058 10.8774 13.3431L16.7494 9.64455C16.9993 9.51918 17.0618 9.33112 17.0618 9.01768C17.0618 8.70424 16.9368 8.51618 16.7494 8.3908L10.8774 4.69222C10.6276 4.56685 10.3777 4.56685 10.1278 4.69222C9.87797 4.8176 9.75297 5.06835 9.75297 5.3191V12.7162C9.81544 12.967 9.94042 13.2177 10.1903 13.3431Z" fill="white"/>
</svg>
